Coordinates
version=1
nRows=17
nColumns=24
inDegrees=yes

Units are S.I. units (second, meters, Newtons, ...)
Angles are in degrees.

endheader
time	pelvis_tilt	pelvis_list	pelvis_rotation	pelvis_tx	pelvis_ty	pelvis_tz	hip_flexion_r	hip_adduction_r	hip_rotation_r	knee_angle_r	ankle_angle_r	subtalar_angle_r	mtp_angle_r	hip_flexion_l	hip_adduction_l	hip_rotation_l	knee_angle_l	ankle_angle_l	subtalar_angle_l	mtp_angle_l	lumbar_extension	lumbar_bending	lumbar_rotation
      3.58500000	    -12.39353472	     -1.94465537	      8.89076752	     -1.79621257	     -0.03483732	     -0.29126672	     36.99977654	     -2.76607056	    -19.33635737	     -6.52074900	     -2.72565548	      1.85957980	     18.06656876	     -2.27003347	      1.09262014	      0.21640621	    -15.88404648	      9.13975693	      4.37161758	      7.55500653	      5.06902288	      0.51430263	    -12.13898183
      3.59000000	    -12.47461738	     -2.09259191	      9.10457584	     -1.78788496	     -0.03579422	     -0.29131910	     37.05357521	     -2.73167210	    -19.42029832	     -7.15100529	     -2.58258515	      1.50946966	     18.12829610	     -2.36067084	      0.78336005	      0.33746502	    -16.41764964	      8.82891725	      4.84133130	      7.72808434	      5.31657772	      0.63539037	    -12.34555204
      3.59500000	    -12.54877197	     -2.22184321	      9.24531378	     -1.77943181	     -0.03676330	     -0.29119493	     37.08633529	     -2.65257140	    -19.26209196	     -7.81709234	     -2.55875625	      1.01204693	     18.18047716	     -2.44820349	      0.46700017	      0.24811825	    -16.98197380	      8.48525528	      5.47881548	      7.98989173	      5.57017441	      0.73038502	    -12.44742304
      3.60000000	    -12.62226505	     -2.36402565	      9.31467425	     -1.77085171	     -0.03774140	     -0.29095446	     37.11515659	     -2.50270122	    -18.96981809	     -8.50357988	     -2.71514927	      0.34643386	     18.20470155	     -2.54919806	      0.12686772	      0.10210296	    -17.52892089	      8.08285797	      6.14536383	      8.36572308	      5.83885774	      0.84350418	    -12.51340865
      3.60500000	    -12.68544348	     -2.51353624	      9.34842330	     -1.76219521	     -0.03866651	     -0.29070318	     37.12748215	     -2.31895258	    -18.64075195	     -9.19386018	     -3.06914923	     -0.39850920	     18.19476900	     -2.66121583	     -0.22597815	     -0.10441140	    -18.06420354	      7.57903454	      6.80326527	      8.84783473	      6.10913641	      0.97808106	    -12.53143541
      3.61000000	    -12.72271880	     -2.68431940	      9.28580941	     -1.75350571	     -0.03956202	     -0.29030987	     37.10503537	     -2.03653905	    -18.17779960	     -9.83620661	     -3.63909298	     -1.27004617	     18.17648971	     -2.77307540	     -0.61506822	     -0.48881923	    -18.63519092	      6.91783056	      7.39679525	      9.77943203	      6.34953445	      1.15222036	    -12.38650812
      3.61500000	    -12.77049991	     -2.89923363	      9.25824175	     -1.74476998	     -0.04037398	     -0.28993654	     37.07306938	     -1.73474870	    -17.80412641	    -10.42036763	     -4.38913856	     -2.14448251	     18.10367636	     -2.84226888	     -1.06376540	     -0.81755544	    -19.23387419	      6.21412888	      8.09992708	     10.72317386	      6.61897759	      1.36151719	    -12.34605738
      3.62000000	    -12.78274024	     -3.15920285	      9.26772204	     -1.73609516	     -0.04103280	     -0.28958609	     36.98948808	     -1.40828020	    -17.53741828	    -10.92640599	     -5.35754813	     -3.06625187	     18.08737279	     -2.91799569	     -1.57300671	     -1.09028182	    -19.76543648	      5.02067109	      8.55878646	     13.56842234	      6.84654570	      1.61031844	    -12.35103455
      3.62500000	    -12.86569300	     -3.49499436	      9.19888149	     -1.72733184	     -0.04168422	     -0.28918685	     36.98860805	     -0.98006796	    -17.27511600	    -11.38195866	     -6.47589141	     -4.00580985	     17.85502259	     -2.85059166	     -2.15665522	     -1.45775703	    -20.51267279	      4.34814423	      9.37967367	     13.74714722	      7.17841205	      1.94714619	    -12.31236302
      3.63000000	    -12.89828147	     -3.83212594	      9.03839572	     -1.71866793	     -0.04219451	     -0.28859283	     36.93931204	     -0.46732318	    -16.86297868	    -11.77357537	     -7.76480382	     -5.16393755	     17.55325133	     -2.79711674	     -2.76009416	     -1.94737930	    -21.30882676	      3.49688106	     10.13219510	     14.17904780	      7.42956070	      2.29778805	    -12.12468813
      3.63500000	    -12.90060196	     -4.22876902	      8.82157781	     -1.70995825	     -0.04253278	     -0.28797931	     36.85971227	      0.13251911	    -16.44926977	    -12.14551627	     -9.07264995	     -6.27560833	     17.04164337	     -2.78320572	     -3.43552326	     -2.48196742	    -21.96128342	      1.97979010	     10.57025623	     17.17931140	      7.66210676	      2.73426395	    -11.90834509
      3.64000000	    -13.00689272	     -4.67669481	      8.63915567	     -1.70128095	     -0.04287735	     -0.28748051	     36.90680640	      0.71993137	    -16.11842056	    -12.54413609	    -10.34135988	     -7.34324187	     16.69372769	     -2.54690416	     -4.14060915	     -2.87264606	    -22.88788574	      0.97894603	     11.29150370	     17.33597482	      8.01827664	      3.21202287	    -11.76789825
      3.64500000	    -13.00286368	     -5.06110344	      8.34857466	     -1.69269020	     -0.04303553	     -0.28668028	     36.85778173	      1.36136996	    -15.55091710	    -13.01369067	    -11.40443265	     -8.50823602	     15.71595886	     -2.43184105	     -4.82182320	     -3.48743340	    -23.70709208	     -0.73338550	     11.71864657	     19.95731936	      8.21340892	      3.63767858	    -11.48102636
      3.65000000	    -13.11653732	     -5.48113258	      8.10515605	     -1.68409958	     -0.04322589	     -0.28609490	     36.94450683	      1.95430788	    -15.10919822	    -13.53102168	    -12.37781625	     -9.55759591	     15.35922970	     -2.09070510	     -5.49459708	     -3.84699628	    -24.76436744	     -2.03962775	     12.29741967	     20.07806663	      8.55282379	      4.09899487	    -11.27809169
      3.65500000	    -13.18896626	     -5.82081975	      7.81168884	     -1.67557294	     -0.04335742	     -0.28529317	     37.00414642	      2.53562619	    -14.48548130	    -14.13632213	    -13.11123697	    -10.72660397	     14.89854924	     -1.75909217	     -6.10816337	     -4.30109795	    -25.86054247	     -3.58576993	     12.80629256	     20.53241787	      8.81841144	      4.46874226	    -11.02462606
      3.66000000	    -13.19680009	     -6.12191503	      7.45057493	     -1.66713444	     -0.04334513	     -0.28446147	     37.02216076	      3.11863238	    -13.87087783	    -14.87608100	    -13.33599098	    -11.48385541	     13.42555654	     -1.50180660	     -6.67808932	     -4.79343888	    -26.81726506	     -5.88243098	     12.83956925	     23.60045019	      8.98158277	      4.83592530	    -10.65711142
      3.66500000	    -13.31734678	     -6.47882718	      7.25256086	     -1.65874731	     -0.04343702	     -0.28383367	     37.13357327	      3.63097064	    -13.44530158	    -15.56697871	    -13.56481047	    -12.32782295	     13.07865262	     -0.94042683	     -7.28721251	     -4.97119870	    -28.12728971	     -7.59397253	     13.17433823	     23.71494201	      9.29048455	      5.21191132	    -10.56240010
